<svg xmlns="http://www.w3.org/2000/svg" viewBox="0 0 829.94 188.13"><defs><style>.cls-1{fill:#ec2027;}.cls-2{fill:#fff;}</style></defs><g id="Layer_2" data-name="Layer 2"><rect class="cls-1" x="15.17" y="11.39" width="408.52" height="164.43"/><path d="M432.32,22.48h25.2V164.73h-25.2Z"/><path d="M462.6,22.48h22.15a65,65,0,0,1,21.94,4.67,60.7,60.7,0,0,1,8.13,4.47A30.7,30.7,0,0,1,522,38.23a36.92,36.92,0,0,1,5.28,9.24,36,36,0,0,1,2.34,12.4q.4,12.41-2.44,19.71A40.14,40.14,0,0,1,520.92,91a22,22,0,0,1-9.76,6.1,28.7,28.7,0,0,1,10.78,5.69,32.62,32.62,0,0,1,7.41,9.86q3.36,6.39,3.56,17a31.28,31.28,0,0,1-1.63,11.59,27.63,27.63,0,0,1-5,8.74,32.63,32.63,0,0,1-7.11,6.19,43.91,43.91,0,0,1-8.23,4.17,71.7,71.7,0,0,1-22.56,4.47H462.6Zm25.8,63a19,19,0,0,0,8.54-2.24,16.74,16.74,0,0,0,5.89-5.18q2.64-3.56,2.64-10.06,0-8.73-2.64-13.31a18.41,18.41,0,0,0-5.89-6.61,16.38,16.38,0,0,0-8.54-2.64Zm0,59.34q7.73,0,12.4-3.26t4.67-12q0-7.71-2.64-11.78a17.42,17.42,0,0,0-5.89-5.9,18.94,18.94,0,0,0-8.54-2.23Z"/><path d="M566.64,22.48a40.75,40.75,0,0,1,13.52,2.23,32.31,32.31,0,0,1,11.48,7A37.78,37.78,0,0,1,600.07,44a58.41,58.41,0,0,1,4.37,18.29q1.42,13.22-.71,22a54,54,0,0,1-5.18,14.12,30.08,30.08,0,0,1-8.33,10.16l16.86,56.09h-26L568.67,117,563,118v46.74h-25.6l.2-142.25ZM563,92.79a16,16,0,0,0,12.81-7.31,19.74,19.74,0,0,0,2.84-6.91,38.59,38.59,0,0,0,.82-7.93,44.12,44.12,0,0,0-.82-8.43A25.84,25.84,0,0,0,576,54.69a13.72,13.72,0,0,0-13-7.42Z"/><path d="M652.8,22.48l21.54,142.25h-25.8l-2.85-21.95H625.78l-3,21.95H597.32L618.66,22.48ZM643.05,120l-7.32-59.74L628.82,120Z"/><path d="M704.42,22.48a40.69,40.69,0,0,1,13.51,2.23,32.14,32.14,0,0,1,11.48,7A37.8,37.8,0,0,1,737.85,44a58.69,58.69,0,0,1,4.37,18.29q1.41,13.22-.71,22a54,54,0,0,1-5.19,14.12A30,30,0,0,1,728,108.64l16.87,56.09h-26L706.45,117l-5.69,1v46.74h-25.6l.2-142.25Zm-3.66,70.31a17,17,0,0,0,7.72-2.34,16.72,16.72,0,0,0,5.08-5,19.57,19.57,0,0,0,2.85-6.91,38.58,38.58,0,0,0,.81-7.93,44.11,44.11,0,0,0-.81-8.43,25.84,25.84,0,0,0-2.64-7.52,13.72,13.72,0,0,0-13-7.42Z"/><path d="M775.14,72.67l12-50.19h25.6L790.17,105.8v58.93H760.1V105.8L737.34,22.48h26.42Z"/><path class="cls-2" d="M27.42,165V22.26H60L71.86,95.64,83.48,22.26H116.7V165.15H90.2V96.25L78.58,165H64.93L53.31,96.87V165Z"/><path class="cls-2" d="M168.88,22.26,190.49,165H164.6l-2.85-22h-20l-3.05,22H113.24l21.4-142.69ZM159.1,120.1l-7.34-59.92-6.93,59.92Z"/><path class="cls-2" d="M215.36,22.26a40.93,40.93,0,0,1,13.55,2.24,32.32,32.32,0,0,1,11.52,7,37.92,37.92,0,0,1,8.46,12.33,58.73,58.73,0,0,1,4.38,18.34q1.42,13.26-.71,22.12a54.39,54.39,0,0,1-5.2,14.17A30.15,30.15,0,0,1,239,108.69L255.92,165H229.83l-12.44-47.9-5.7,1V165H186l.21-142.69Zm-3.67,70.53a16,16,0,0,0,12.84-7.34,19.59,19.59,0,0,0,2.85-6.93,38.71,38.71,0,0,0,.82-8,44.43,44.43,0,0,0-.82-8.46,25.79,25.79,0,0,0-2.65-7.54,13.77,13.77,0,0,0-13-7.44Z"/><path class="cls-2" d="M270.18,22.26l11.42,86,12-86h25.68L296.68,165H266.52L243.69,22.26Z"/><path class="cls-2" d="M315.64,165V22.26h47.9V47.54H341.93v32.2h21.81v26.5h-23v32.21H364V165Z"/><path class="cls-2" d="M391.87,22.06v117.2h22v25.89H366.6V22.26Z"/></g></svg>